# xmcd
#
# Track frame offsets: 
#        150
#        18010
#        39887
#        64535
#        83772
#        108245
#        127050
#
# Disc length: 2057 seconds
#
# Revision: 1
# Processed by: cddbd v1.5.2PL0 Copyright (c) Steve Scherf et al.
# Submitted via: ExactAudioCopyFreeDBPlugin 1.0
#
DISCID=48080707
DTITLE=Mastermind - Mastermind
DYEAR=1977
DGENRE=Funk
TTITLE0=I Am Music
TTITLE1=Hustle Bus Stop
TTITLE2=Free And Wild
TTITLE3=Disco Party In The Street
TTITLE4=Mother Nature
TTITLE5=Runnin Away From Love
TTITLE6=Mastermind
EXTD=
EXTT0=
EXTT1=
EXTT2=
EXTT3=
EXTT4=
EXTT5=
EXTT6=
PLAYORDER=
